# xmcd
#
# Track frame offsets: 
#        150
#        16662
#        33175
#        47300
#        57500
#        69837
#        79737
#        92000
#        108362
#        119787
#        130500
#        145127
#        157320
#
# Disc length: 2290 seconds
#
# Revision: 4
# Processed by: cddbd v1.5.2PL0 Copyright (c) Steve Scherf et al.
# Submitted via: ExactAudioCopyFreeDBPlugin 1.0
#
DISCID=a308f00d
DTITLE=Uncle Tupelo - Still Feel Gone {Rockville,ROCK6070-2}
DYEAR=1991
DGENRE=Alt. Country
TTITLE0=Gun
TTITLE1=Looking For A Way Out
TTITLE2=Fall Down Easy
TTITLE3=Nothing
TTITLE4=Still Be Around
TTITLE5=Watch Me Fall
TTITLE6=Punch Drunk
TTITLE7=Postcard
TTITLE8=D. Boon
TTITLE9=True To Life
TTITLE10=Cold Shoulder
TTITLE11=Discarded
TTITLE12=If That's Alright
EXTD=YEAR: 1991 ID3G:   2
EXTT0=
EXTT1=
EXTT2=
EXTT3=
EXTT4=
EXTT5=
EXTT6=
EXTT7=
EXTT8=
EXTT9=
EXTT10=
EXTT11=
EXTT12=
PLAYORDER=
